<svg width="128" height="128" viewBox="0 0 128 128" fill="none" xmlns="http://www.w3.org/2000/svg">
<rect width="128" height="128" fill="#E5E5E5"/>
<rect x="10" y="7" width="108" height="111" rx="1" fill="#FDFAFA" stroke="#333333" stroke-width="2"/>
<line x1="19" y1="56.2929" x2="35.2929" y2="40" stroke="black" stroke-linecap="round"/>
<line x1="19.7049" y1="40.9436" x2="37.2458" y2="55.8845" stroke="black" stroke-linecap="round"/>
<line x1="19" y1="82.2929" x2="35.2929" y2="66" stroke="black" stroke-linecap="round"/>
<line x1="19.7049" y1="66.9436" x2="37.2458" y2="81.8845" stroke="black" stroke-linecap="round"/>
<line x1="19" y1="110.293" x2="35.2929" y2="94" stroke="black" stroke-linecap="round"/>
<line x1="19.7049" y1="94.9436" x2="37.2458" y2="109.884" stroke="black" stroke-linecap="round"/>
<path d="M48.6051 100.719V104H47.767V98.5455H48.5767V99.3977H48.6477C48.7756 99.1207 48.9697 98.8982 49.2301 98.7301C49.4905 98.5597 49.8267 98.4744 50.2386 98.4744C50.608 98.4744 50.9311 98.5502 51.2081 98.7017C51.4851 98.8509 51.7005 99.0781 51.8544 99.3835C52.0083 99.6866 52.0852 100.07 52.0852 100.534V104H51.2472V100.591C51.2472 100.162 51.1359 99.8286 50.9134 99.5895C50.6908 99.348 50.3854 99.2273 49.9972 99.2273C49.7296 99.2273 49.4905 99.2853 49.2798 99.4013C49.0715 99.5173 48.907 99.6866 48.7862 99.9091C48.6655 100.132 48.6051 100.402 48.6051 100.719ZM55.8326 104.114C55.3401 104.114 54.9081 103.996 54.5364 103.762C54.1671 103.528 53.8783 103.2 53.6699 102.778C53.464 102.357 53.361 101.865 53.361 101.301C53.361 100.733 53.464 100.237 53.6699 99.8132C53.8783 99.3894 54.1671 99.0604 54.5364 98.826C54.9081 98.5916 55.3401 98.4744 55.8326 98.4744C56.325 98.4744 56.7559 98.5916 57.1252 98.826C57.4969 99.0604 57.7857 99.3894 57.9917 99.8132C58.2 100.237 58.3042 100.733 58.3042 101.301C58.3042 101.865 58.2 102.357 57.9917 102.778C57.7857 103.2 57.4969 103.528 57.1252 103.762C56.7559 103.996 56.325 104.114 55.8326 104.114ZM55.8326 103.361C56.2066 103.361 56.5144 103.265 56.7559 103.073C56.9973 102.881 57.1761 102.629 57.2921 102.317C57.4081 102.004 57.4661 101.666 57.4661 101.301C57.4661 100.937 57.4081 100.597 57.2921 100.282C57.1761 99.9671 56.9973 99.7126 56.7559 99.5185C56.5144 99.3243 56.2066 99.2273 55.8326 99.2273C55.4585 99.2273 55.1507 99.3243 54.9093 99.5185C54.6678 99.7126 54.4891 99.9671 54.373 100.282C54.257 100.597 54.199 100.937 54.199 101.301C54.199 101.666 54.257 102.004 54.373 102.317C54.4891 102.629 54.6678 102.881 54.9093 103.073C55.1507 103.265 55.4585 103.361 55.8326 103.361ZM61.9556 98.5455V99.2557H59.1289V98.5455H61.9556ZM59.9528 97.2386H60.7908V102.438C60.7908 102.674 60.8252 102.852 60.8938 102.97C60.9648 103.086 61.0548 103.164 61.1637 103.205C61.275 103.242 61.3922 103.261 61.5153 103.261C61.6076 103.261 61.6834 103.257 61.7425 103.247C61.8017 103.235 61.8491 103.226 61.8846 103.219L62.055 103.972C61.9982 103.993 61.9189 104.014 61.8171 104.036C61.7153 104.059 61.5863 104.071 61.43 104.071C61.1933 104.071 60.9613 104.02 60.734 103.918C60.5091 103.817 60.3221 103.661 60.1729 103.453C60.0262 103.245 59.9528 102.982 59.9528 102.665V97.2386ZM67.6339 104.128C67.2882 104.128 66.9746 104.063 66.6928 103.933C66.4111 103.8 66.1874 103.609 66.0217 103.361C65.8559 103.11 65.7731 102.807 65.7731 102.452C65.7731 102.139 65.8346 101.886 65.9577 101.692C66.0808 101.495 66.2454 101.341 66.4513 101.23C66.6573 101.119 66.8846 101.036 67.1332 100.982C67.3841 100.925 67.6362 100.88 67.8896 100.847C68.221 100.804 68.4897 100.772 68.6957 100.751C68.904 100.727 69.0555 100.688 69.1502 100.634C69.2473 100.579 69.2958 100.484 69.2958 100.349V100.321C69.2958 99.9706 69.1999 99.6984 69.0082 99.5043C68.8188 99.3101 68.5311 99.2131 68.1452 99.2131C67.7451 99.2131 67.4315 99.3007 67.2042 99.4759C66.9769 99.651 66.8171 99.8381 66.7248 100.037L65.9293 99.7528C66.0714 99.4214 66.2608 99.1634 66.4975 98.9787C66.7366 98.7917 66.997 98.6615 67.2788 98.5881C67.5629 98.5123 67.8422 98.4744 68.1168 98.4744C68.292 98.4744 68.4933 98.4957 68.7205 98.5384C68.9502 98.5786 69.1715 98.6626 69.3846 98.7905C69.6 98.9183 69.7788 99.1113 69.9208 99.3693C70.0629 99.6274 70.1339 99.973 70.1339 100.406V104H69.2958V103.261H69.2532C69.1964 103.38 69.1017 103.506 68.9691 103.641C68.8365 103.776 68.6602 103.891 68.44 103.986C68.2198 104.08 67.9511 104.128 67.6339 104.128ZM67.7617 103.375C68.0932 103.375 68.3725 103.31 68.5998 103.18C68.8294 103.049 69.0022 102.881 69.1183 102.675C69.2366 102.469 69.2958 102.253 69.2958 102.026V101.259C69.2603 101.301 69.1822 101.34 69.0614 101.376C68.9431 101.409 68.8058 101.438 68.6495 101.464C68.4956 101.488 68.3453 101.509 68.1985 101.528C68.0541 101.545 67.9369 101.559 67.8469 101.571C67.6291 101.599 67.4255 101.646 67.2362 101.71C67.0491 101.771 66.8976 101.865 66.7816 101.99C66.668 102.113 66.6112 102.281 66.6112 102.494C66.6112 102.786 66.7189 103.006 66.9343 103.155C67.1521 103.302 67.4279 103.375 67.7617 103.375ZM74.476 104V98.5455H75.2857V99.3977H75.3567C75.4703 99.1065 75.6538 98.8804 75.9071 98.7195C76.1605 98.5561 76.4647 98.4744 76.8198 98.4744C77.1796 98.4744 77.4791 98.5561 77.7182 98.7195C77.9597 98.8804 78.1479 99.1065 78.2828 99.3977H78.3397C78.4793 99.116 78.6889 98.8923 78.9682 98.7266C79.2476 98.5585 79.5826 98.4744 79.9732 98.4744C80.4609 98.4744 80.8598 98.6271 81.1699 98.9325C81.4801 99.2356 81.6351 99.7079 81.6351 100.349V104H80.7971V100.349C80.7971 99.947 80.687 99.6593 80.4668 99.4865C80.2466 99.3137 79.9874 99.2273 79.6891 99.2273C79.3056 99.2273 79.0085 99.3433 78.7978 99.5753C78.5871 99.8049 78.4817 100.096 78.4817 100.449V104H77.6294V100.264C77.6294 99.9541 77.5288 99.7043 77.3276 99.5149C77.1264 99.3232 76.8671 99.2273 76.5499 99.2273C76.3321 99.2273 76.1285 99.2853 75.9391 99.4013C75.7521 99.5173 75.6006 99.6783 75.4846 99.8842C75.3709 100.088 75.3141 100.323 75.3141 100.591V104H74.476ZM84.7725 104.128C84.4269 104.128 84.1132 104.063 83.8315 103.933C83.5498 103.8 83.3261 103.609 83.1603 103.361C82.9946 103.11 82.9118 102.807 82.9118 102.452C82.9118 102.139 82.9733 101.886 83.0964 101.692C83.2195 101.495 83.3841 101.341 83.59 101.23C83.796 101.119 84.0233 101.036 84.2718 100.982C84.5228 100.925 84.7749 100.88 85.0282 100.847C85.3597 100.804 85.6284 100.772 85.8343 100.751C86.0427 100.727 86.1942 100.688 86.2889 100.634C86.3859 100.579 86.4345 100.484 86.4345 100.349V100.321C86.4345 99.9706 86.3386 99.6984 86.1468 99.5043C85.9574 99.3101 85.6698 99.2131 85.2839 99.2131C84.8838 99.2131 84.5701 99.3007 84.3429 99.4759C84.1156 99.651 83.9558 99.8381 83.8635 100.037L83.068 99.7528C83.21 99.4214 83.3994 99.1634 83.6362 98.9787C83.8753 98.7917 84.1357 98.6615 84.4174 98.5881C84.7015 98.5123 84.9809 98.4744 85.2555 98.4744C85.4307 98.4744 85.6319 98.4957 85.8592 98.5384C86.0888 98.5786 86.3102 98.6626 86.5233 98.7905C86.7387 98.9183 86.9174 99.1113 87.0595 99.3693C87.2015 99.6274 87.2725 99.973 87.2725 100.406V104H86.4345V103.261H86.3919C86.335 103.38 86.2404 103.506 86.1078 103.641C85.9752 103.776 85.7988 103.891 85.5787 103.986C85.3585 104.08 85.0898 104.128 84.7725 104.128ZM84.9004 103.375C85.2318 103.375 85.5112 103.31 85.7385 103.18C85.9681 103.049 86.1409 102.881 86.2569 102.675C86.3753 102.469 86.4345 102.253 86.4345 102.026V101.259C86.399 101.301 86.3208 101.34 86.2001 101.376C86.0817 101.409 85.9444 101.438 85.7882 101.464C85.6343 101.488 85.484 101.509 85.3372 101.528C85.1928 101.545 85.0756 101.559 84.9856 101.571C84.7678 101.599 84.5642 101.646 84.3748 101.71C84.1878 101.771 84.0363 101.865 83.9203 101.99C83.8066 102.113 83.7498 102.281 83.7498 102.494C83.7498 102.786 83.8575 103.006 84.073 103.155C84.2908 103.302 84.5666 103.375 84.9004 103.375ZM91.1744 98.5455V99.2557H88.3477V98.5455H91.1744ZM89.1715 97.2386H90.0096V102.438C90.0096 102.674 90.0439 102.852 90.1126 102.97C90.1836 103.086 90.2736 103.164 90.3825 103.205C90.4937 103.242 90.6109 103.261 90.734 103.261C90.8263 103.261 90.9021 103.257 90.9613 103.247C91.0205 103.235 91.0678 103.226 91.1033 103.219L91.2738 103.972C91.217 103.993 91.1377 104.014 91.0359 104.036C90.9341 104.059 90.805 104.071 90.6488 104.071C90.4121 104.071 90.18 104.02 89.9528 103.918C89.7279 103.817 89.5408 103.661 89.3917 103.453C89.2449 103.245 89.1715 102.982 89.1715 102.665V97.2386ZM94.5923 104.114C94.081 104.114 93.6406 103.993 93.2713 103.751C92.902 103.51 92.6179 103.177 92.419 102.754C92.2202 102.33 92.1207 101.846 92.1207 101.301C92.1207 100.747 92.2225 100.258 92.4261 99.8345C92.6321 99.4084 92.9186 99.0758 93.2855 98.8366C93.6548 98.5952 94.0857 98.4744 94.5781 98.4744C94.9616 98.4744 95.3073 98.5455 95.6151 98.6875C95.9228 98.8295 96.175 99.0284 96.3714 99.2841C96.5679 99.5398 96.6899 99.8381 96.7372 100.179H95.8991C95.8352 99.9304 95.6932 99.7102 95.473 99.5185C95.2552 99.3243 94.9616 99.2273 94.5923 99.2273C94.2656 99.2273 93.9792 99.3125 93.733 99.483C93.4891 99.651 93.2985 99.889 93.1612 100.197C93.0263 100.502 92.9588 100.861 92.9588 101.273C92.9588 101.694 93.0251 102.061 93.1577 102.374C93.2926 102.686 93.482 102.929 93.7259 103.102C93.9721 103.274 94.2609 103.361 94.5923 103.361C94.8101 103.361 95.0078 103.323 95.1854 103.247C95.3629 103.171 95.5133 103.062 95.6364 102.92C95.7595 102.778 95.8471 102.608 95.8991 102.409H96.7372C96.6899 102.731 96.5727 103.021 96.3857 103.279C96.201 103.535 95.956 103.738 95.6506 103.89C95.3475 104.039 94.9948 104.114 94.5923 104.114ZM98.8004 100.719V104H97.9624V96.7273H98.8004V99.3977H98.8714C98.9993 99.116 99.1911 98.8923 99.4467 98.7266C99.7048 98.5585 100.048 98.4744 100.477 98.4744C100.848 98.4744 101.174 98.549 101.453 98.6982C101.732 98.8449 101.949 99.071 102.103 99.3764C102.259 99.6795 102.337 100.065 102.337 100.534V104H101.499V100.591C101.499 100.158 101.387 99.8227 101.162 99.5859C100.939 99.3468 100.63 99.2273 100.235 99.2273C99.9605 99.2273 99.7143 99.2853 99.4964 99.4013C99.281 99.5173 99.1106 99.6866 98.9851 99.9091C98.862 100.132 98.8004 100.402 98.8004 100.719Z" fill="black"/>
<path d="M49.6051 74.7188V78H48.767V72.5455H49.5767V73.3977H49.6477C49.7756 73.1207 49.9697 72.8982 50.2301 72.7301C50.4905 72.5597 50.8267 72.4744 51.2386 72.4744C51.608 72.4744 51.9311 72.5502 52.2081 72.7017C52.4851 72.8509 52.7005 73.0781 52.8544 73.3835C53.0083 73.6866 53.0852 74.0701 53.0852 74.5341V78H52.2472V74.5909C52.2472 74.1624 52.1359 73.8286 51.9134 73.5895C51.6908 73.348 51.3854 73.2273 50.9972 73.2273C50.7296 73.2273 50.4905 73.2853 50.2798 73.4013C50.0715 73.5173 49.907 73.6866 49.7862 73.9091C49.6655 74.1316 49.6051 74.4015 49.6051 74.7188ZM56.8326 78.1136C56.3401 78.1136 55.9081 77.9964 55.5364 77.7621C55.1671 77.5277 54.8783 77.1998 54.6699 76.7784C54.464 76.357 54.361 75.8646 54.361 75.3011C54.361 74.733 54.464 74.237 54.6699 73.8132C54.8783 73.3894 55.1671 73.0604 55.5364 72.826C55.9081 72.5916 56.3401 72.4744 56.8326 72.4744C57.325 72.4744 57.7559 72.5916 58.1252 72.826C58.4969 73.0604 58.7857 73.3894 58.9917 73.8132C59.2 74.237 59.3042 74.733 59.3042 75.3011C59.3042 75.8646 59.2 76.357 58.9917 76.7784C58.7857 77.1998 58.4969 77.5277 58.1252 77.7621C57.7559 77.9964 57.325 78.1136 56.8326 78.1136ZM56.8326 77.3608C57.2066 77.3608 57.5144 77.2649 57.7559 77.0732C57.9973 76.8814 58.1761 76.6293 58.2921 76.3168C58.4081 76.0043 58.4661 75.6657 58.4661 75.3011C58.4661 74.9366 58.4081 74.5968 58.2921 74.282C58.1761 73.9671 57.9973 73.7126 57.7559 73.5185C57.5144 73.3243 57.2066 73.2273 56.8326 73.2273C56.4585 73.2273 56.1507 73.3243 55.9093 73.5185C55.6678 73.7126 55.4891 73.9671 55.373 74.282C55.257 74.5968 55.199 74.9366 55.199 75.3011C55.199 75.6657 55.257 76.0043 55.373 76.3168C55.4891 76.6293 55.6678 76.8814 55.9093 77.0732C56.1507 77.2649 56.4585 77.3608 56.8326 77.3608ZM62.9556 72.5455V73.2557H60.1289V72.5455H62.9556ZM60.9528 71.2386H61.7908V76.4375C61.7908 76.6742 61.8252 76.8518 61.8938 76.9702C61.9648 77.0862 62.0548 77.1643 62.1637 77.2045C62.275 77.2424 62.3922 77.2614 62.5153 77.2614C62.6076 77.2614 62.6834 77.2566 62.7425 77.2472C62.8017 77.2353 62.8491 77.2259 62.8846 77.2188L63.055 77.9716C62.9982 77.9929 62.9189 78.0142 62.8171 78.0355C62.7153 78.0592 62.5863 78.071 62.43 78.071C62.1933 78.071 61.9613 78.0201 61.734 77.9183C61.5091 77.8165 61.3221 77.6615 61.1729 77.4531C61.0262 77.2448 60.9528 76.982 60.9528 76.6648V71.2386ZM68.6339 78.1278C68.2882 78.1278 67.9746 78.0627 67.6928 77.9325C67.4111 77.8 67.1874 77.6094 67.0217 77.3608C66.8559 77.1098 66.7731 76.8068 66.7731 76.4517C66.7731 76.1392 66.8346 75.8859 66.9577 75.6918C67.0808 75.4953 67.2454 75.3414 67.4513 75.2301C67.6573 75.1188 67.8846 75.036 68.1332 74.9815C68.3841 74.9247 68.6362 74.8797 68.8896 74.8466C69.221 74.804 69.4897 74.772 69.6957 74.7507C69.904 74.727 70.0555 74.688 70.1502 74.6335C70.2473 74.5791 70.2958 74.4844 70.2958 74.3494V74.321C70.2958 73.9706 70.1999 73.6984 70.0082 73.5043C69.8188 73.3101 69.5311 73.2131 69.1452 73.2131C68.7451 73.2131 68.4315 73.3007 68.2042 73.4759C67.9769 73.651 67.8171 73.8381 67.7248 74.0369L66.9293 73.7528C67.0714 73.4214 67.2608 73.1634 67.4975 72.9787C67.7366 72.7917 67.997 72.6615 68.2788 72.5881C68.5629 72.5123 68.8422 72.4744 69.1168 72.4744C69.292 72.4744 69.4933 72.4957 69.7205 72.5384C69.9502 72.5786 70.1715 72.6626 70.3846 72.7905C70.6 72.9183 70.7788 73.1113 70.9208 73.3693C71.0629 73.6274 71.1339 73.973 71.1339 74.4062V78H70.2958V77.2614H70.2532C70.1964 77.3797 70.1017 77.5064 69.9691 77.6413C69.8365 77.7763 69.6602 77.8911 69.44 77.9858C69.2198 78.0805 68.9511 78.1278 68.6339 78.1278ZM68.7617 77.375C69.0932 77.375 69.3725 77.3099 69.5998 77.1797C69.8294 77.0495 70.0022 76.8814 70.1183 76.6754C70.2366 76.4695 70.2958 76.2528 70.2958 76.0256V75.2585C70.2603 75.3011 70.1822 75.3402 70.0614 75.3757C69.9431 75.4089 69.8058 75.4384 69.6495 75.4645C69.4956 75.4882 69.3453 75.5095 69.1985 75.5284C69.0541 75.545 68.9369 75.5592 68.8469 75.571C68.6291 75.5994 68.4255 75.6456 68.2362 75.7095C68.0491 75.7711 67.8976 75.8646 67.7816 75.9901C67.668 76.1132 67.6112 76.2812 67.6112 76.4943C67.6112 76.7855 67.7189 77.0057 67.9343 77.1548C68.1521 77.3016 68.4279 77.375 68.7617 77.375ZM75.476 78V72.5455H76.2857V73.3977H76.3567C76.4703 73.1065 76.6538 72.8804 76.9071 72.7195C77.1605 72.5561 77.4647 72.4744 77.8198 72.4744C78.1796 72.4744 78.4791 72.5561 78.7182 72.7195C78.9597 72.8804 79.1479 73.1065 79.2828 73.3977H79.3397C79.4793 73.116 79.6889 72.8923 79.9682 72.7266C80.2476 72.5585 80.5826 72.4744 80.9732 72.4744C81.4609 72.4744 81.8598 72.6271 82.1699 72.9325C82.4801 73.2356 82.6351 73.7079 82.6351 74.3494V78H81.7971V74.3494C81.7971 73.947 81.687 73.6593 81.4668 73.4865C81.2466 73.3137 80.9874 73.2273 80.6891 73.2273C80.3056 73.2273 80.0085 73.3433 79.7978 73.5753C79.5871 73.8049 79.4817 74.0961 79.4817 74.4489V78H78.6294V74.2642C78.6294 73.9541 78.5288 73.7043 78.3276 73.5149C78.1264 73.3232 77.8671 73.2273 77.5499 73.2273C77.3321 73.2273 77.1285 73.2853 76.9391 73.4013C76.7521 73.5173 76.6006 73.6783 76.4846 73.8842C76.3709 74.0878 76.3141 74.3234 76.3141 74.5909V78H75.476ZM85.7725 78.1278C85.4269 78.1278 85.1132 78.0627 84.8315 77.9325C84.5498 77.8 84.3261 77.6094 84.1603 77.3608C83.9946 77.1098 83.9118 76.8068 83.9118 76.4517C83.9118 76.1392 83.9733 75.8859 84.0964 75.6918C84.2195 75.4953 84.3841 75.3414 84.59 75.2301C84.796 75.1188 85.0233 75.036 85.2718 74.9815C85.5228 74.9247 85.7749 74.8797 86.0282 74.8466C86.3597 74.804 86.6284 74.772 86.8343 74.7507C87.0427 74.727 87.1942 74.688 87.2889 74.6335C87.3859 74.5791 87.4345 74.4844 87.4345 74.3494V74.321C87.4345 73.9706 87.3386 73.6984 87.1468 73.5043C86.9574 73.3101 86.6698 73.2131 86.2839 73.2131C85.8838 73.2131 85.5701 73.3007 85.3429 73.4759C85.1156 73.651 84.9558 73.8381 84.8635 74.0369L84.068 73.7528C84.21 73.4214 84.3994 73.1634 84.6362 72.9787C84.8753 72.7917 85.1357 72.6615 85.4174 72.5881C85.7015 72.5123 85.9809 72.4744 86.2555 72.4744C86.4307 72.4744 86.6319 72.4957 86.8592 72.5384C87.0888 72.5786 87.3102 72.6626 87.5233 72.7905C87.7387 72.9183 87.9174 73.1113 88.0595 73.3693C88.2015 73.6274 88.2725 73.973 88.2725 74.4062V78H87.4345V77.2614H87.3919C87.335 77.3797 87.2404 77.5064 87.1078 77.6413C86.9752 77.7763 86.7988 77.8911 86.5787 77.9858C86.3585 78.0805 86.0898 78.1278 85.7725 78.1278ZM85.9004 77.375C86.2318 77.375 86.5112 77.3099 86.7385 77.1797C86.9681 77.0495 87.1409 76.8814 87.2569 76.6754C87.3753 76.4695 87.4345 76.2528 87.4345 76.0256V75.2585C87.399 75.3011 87.3208 75.3402 87.2001 75.3757C87.0817 75.4089 86.9444 75.4384 86.7882 75.4645C86.6343 75.4882 86.484 75.5095 86.3372 75.5284C86.1928 75.545 86.0756 75.5592 85.9856 75.571C85.7678 75.5994 85.5642 75.6456 85.3748 75.7095C85.1878 75.7711 85.0363 75.8646 84.9203 75.9901C84.8066 76.1132 84.7498 76.2812 84.7498 76.4943C84.7498 76.7855 84.8575 77.0057 85.073 77.1548C85.2908 77.3016 85.5666 77.375 85.9004 77.375ZM92.1744 72.5455V73.2557H89.3477V72.5455H92.1744ZM90.1715 71.2386H91.0096V76.4375C91.0096 76.6742 91.0439 76.8518 91.1126 76.9702C91.1836 77.0862 91.2736 77.1643 91.3825 77.2045C91.4937 77.2424 91.6109 77.2614 91.734 77.2614C91.8263 77.2614 91.9021 77.2566 91.9613 77.2472C92.0205 77.2353 92.0678 77.2259 92.1033 77.2188L92.2738 77.9716C92.217 77.9929 92.1377 78.0142 92.0359 78.0355C91.9341 78.0592 91.805 78.071 91.6488 78.071C91.4121 78.071 91.18 78.0201 90.9528 77.9183C90.7279 77.8165 90.5408 77.6615 90.3917 77.4531C90.2449 77.2448 90.1715 76.982 90.1715 76.6648V71.2386ZM95.5923 78.1136C95.081 78.1136 94.6406 77.9929 94.2713 77.7514C93.902 77.5099 93.6179 77.1773 93.419 76.7536C93.2202 76.3298 93.1207 75.8456 93.1207 75.3011C93.1207 74.7472 93.2225 74.2583 93.4261 73.8345C93.6321 73.4084 93.9186 73.0758 94.2855 72.8366C94.6548 72.5952 95.0857 72.4744 95.5781 72.4744C95.9616 72.4744 96.3073 72.5455 96.6151 72.6875C96.9228 72.8295 97.175 73.0284 97.3714 73.2841C97.5679 73.5398 97.6899 73.8381 97.7372 74.179H96.8991C96.8352 73.9304 96.6932 73.7102 96.473 73.5185C96.2552 73.3243 95.9616 73.2273 95.5923 73.2273C95.2656 73.2273 94.9792 73.3125 94.733 73.483C94.4891 73.651 94.2985 73.889 94.1612 74.1967C94.0263 74.5021 93.9588 74.8608 93.9588 75.2727C93.9588 75.6941 94.0251 76.0611 94.1577 76.3736C94.2926 76.6861 94.482 76.9287 94.7259 77.1016C94.9721 77.2744 95.2609 77.3608 95.5923 77.3608C95.8101 77.3608 96.0078 77.3229 96.1854 77.2472C96.3629 77.1714 96.5133 77.0625 96.6364 76.9205C96.7595 76.7784 96.8471 76.608 96.8991 76.4091H97.7372C97.6899 76.7311 97.5727 77.0211 97.3857 77.2791C97.201 77.5348 96.956 77.7384 96.6506 77.8899C96.3475 78.0391 95.9948 78.1136 95.5923 78.1136ZM99.8004 74.7188V78H98.9624V70.7273H99.8004V73.3977H99.8714C99.9993 73.116 100.191 72.8923 100.447 72.7266C100.705 72.5585 101.048 72.4744 101.477 72.4744C101.848 72.4744 102.174 72.549 102.453 72.6982C102.732 72.8449 102.949 73.071 103.103 73.3764C103.259 73.6795 103.337 74.0653 103.337 74.5341V78H102.499V74.5909C102.499 74.1577 102.387 73.8227 102.162 73.5859C101.939 73.3468 101.63 73.2273 101.235 73.2273C100.96 73.2273 100.714 73.2853 100.496 73.4013C100.281 73.5173 100.111 73.6866 99.9851 73.9091C99.862 74.1316 99.8004 74.4015 99.8004 74.7188Z" fill="black"/>
<path d="M48.6051 47.7188V51H47.767V45.5455H48.5767V46.3977H48.6477C48.7756 46.1207 48.9697 45.8982 49.2301 45.7301C49.4905 45.5597 49.8267 45.4744 50.2386 45.4744C50.608 45.4744 50.9311 45.5502 51.2081 45.7017C51.4851 45.8509 51.7005 46.0781 51.8544 46.3835C52.0083 46.6866 52.0852 47.0701 52.0852 47.5341V51H51.2472V47.5909C51.2472 47.1624 51.1359 46.8286 50.9134 46.5895C50.6908 46.348 50.3854 46.2273 49.9972 46.2273C49.7296 46.2273 49.4905 46.2853 49.2798 46.4013C49.0715 46.5173 48.907 46.6866 48.7862 46.9091C48.6655 47.1316 48.6051 47.4015 48.6051 47.7188ZM55.8326 51.1136C55.3401 51.1136 54.9081 50.9964 54.5364 50.7621C54.1671 50.5277 53.8783 50.1998 53.6699 49.7784C53.464 49.357 53.361 48.8646 53.361 48.3011C53.361 47.733 53.464 47.237 53.6699 46.8132C53.8783 46.3894 54.1671 46.0604 54.5364 45.826C54.9081 45.5916 55.3401 45.4744 55.8326 45.4744C56.325 45.4744 56.7559 45.5916 57.1252 45.826C57.4969 46.0604 57.7857 46.3894 57.9917 46.8132C58.2 47.237 58.3042 47.733 58.3042 48.3011C58.3042 48.8646 58.2 49.357 57.9917 49.7784C57.7857 50.1998 57.4969 50.5277 57.1252 50.7621C56.7559 50.9964 56.325 51.1136 55.8326 51.1136ZM55.8326 50.3608C56.2066 50.3608 56.5144 50.2649 56.7559 50.0732C56.9973 49.8814 57.1761 49.6293 57.2921 49.3168C57.4081 49.0043 57.4661 48.6657 57.4661 48.3011C57.4661 47.9366 57.4081 47.5968 57.2921 47.282C57.1761 46.9671 56.9973 46.7126 56.7559 46.5185C56.5144 46.3243 56.2066 46.2273 55.8326 46.2273C55.4585 46.2273 55.1507 46.3243 54.9093 46.5185C54.6678 46.7126 54.4891 46.9671 54.373 47.282C54.257 47.5968 54.199 47.9366 54.199 48.3011C54.199 48.6657 54.257 49.0043 54.373 49.3168C54.4891 49.6293 54.6678 49.8814 54.9093 50.0732C55.1507 50.2649 55.4585 50.3608 55.8326 50.3608ZM61.9556 45.5455V46.2557H59.1289V45.5455H61.9556ZM59.9528 44.2386H60.7908V49.4375C60.7908 49.6742 60.8252 49.8518 60.8938 49.9702C60.9648 50.0862 61.0548 50.1643 61.1637 50.2045C61.275 50.2424 61.3922 50.2614 61.5153 50.2614C61.6076 50.2614 61.6834 50.2566 61.7425 50.2472C61.8017 50.2353 61.8491 50.2259 61.8846 50.2188L62.055 50.9716C61.9982 50.9929 61.9189 51.0142 61.8171 51.0355C61.7153 51.0592 61.5863 51.071 61.43 51.071C61.1933 51.071 60.9613 51.0201 60.734 50.9183C60.5091 50.8165 60.3221 50.6615 60.1729 50.4531C60.0262 50.2448 59.9528 49.982 59.9528 49.6648V44.2386ZM67.6339 51.1278C67.2882 51.1278 66.9746 51.0627 66.6928 50.9325C66.4111 50.8 66.1874 50.6094 66.0217 50.3608C65.8559 50.1098 65.7731 49.8068 65.7731 49.4517C65.7731 49.1392 65.8346 48.8859 65.9577 48.6918C66.0808 48.4953 66.2454 48.3414 66.4513 48.2301C66.6573 48.1188 66.8846 48.036 67.1332 47.9815C67.3841 47.9247 67.6362 47.8797 67.8896 47.8466C68.221 47.804 68.4897 47.772 68.6957 47.7507C68.904 47.727 69.0555 47.688 69.1502 47.6335C69.2473 47.5791 69.2958 47.4844 69.2958 47.3494V47.321C69.2958 46.9706 69.1999 46.6984 69.0082 46.5043C68.8188 46.3101 68.5311 46.2131 68.1452 46.2131C67.7451 46.2131 67.4315 46.3007 67.2042 46.4759C66.9769 46.651 66.8171 46.8381 66.7248 47.0369L65.9293 46.7528C66.0714 46.4214 66.2608 46.1634 66.4975 45.9787C66.7366 45.7917 66.997 45.6615 67.2788 45.5881C67.5629 45.5123 67.8422 45.4744 68.1168 45.4744C68.292 45.4744 68.4933 45.4957 68.7205 45.5384C68.9502 45.5786 69.1715 45.6626 69.3846 45.7905C69.6 45.9183 69.7788 46.1113 69.9208 46.3693C70.0629 46.6274 70.1339 46.973 70.1339 47.4062V51H69.2958V50.2614H69.2532C69.1964 50.3797 69.1017 50.5064 68.9691 50.6413C68.8365 50.7763 68.6602 50.8911 68.44 50.9858C68.2198 51.0805 67.9511 51.1278 67.6339 51.1278ZM67.7617 50.375C68.0932 50.375 68.3725 50.3099 68.5998 50.1797C68.8294 50.0495 69.0022 49.8814 69.1183 49.6754C69.2366 49.4695 69.2958 49.2528 69.2958 49.0256V48.2585C69.2603 48.3011 69.1822 48.3402 69.0614 48.3757C68.9431 48.4089 68.8058 48.4384 68.6495 48.4645C68.4956 48.4882 68.3453 48.5095 68.1985 48.5284C68.0541 48.545 67.9369 48.5592 67.8469 48.571C67.6291 48.5994 67.4255 48.6456 67.2362 48.7095C67.0491 48.7711 66.8976 48.8646 66.7816 48.9901C66.668 49.1132 66.6112 49.2812 66.6112 49.4943C66.6112 49.7855 66.7189 50.0057 66.9343 50.1548C67.1521 50.3016 67.4279 50.375 67.7617 50.375ZM74.476 51V45.5455H75.2857V46.3977H75.3567C75.4703 46.1065 75.6538 45.8804 75.9071 45.7195C76.1605 45.5561 76.4647 45.4744 76.8198 45.4744C77.1796 45.4744 77.4791 45.5561 77.7182 45.7195C77.9597 45.8804 78.1479 46.1065 78.2828 46.3977H78.3397C78.4793 46.116 78.6889 45.8923 78.9682 45.7266C79.2476 45.5585 79.5826 45.4744 79.9732 45.4744C80.4609 45.4744 80.8598 45.6271 81.1699 45.9325C81.4801 46.2356 81.6351 46.7079 81.6351 47.3494V51H80.7971V47.3494C80.7971 46.947 80.687 46.6593 80.4668 46.4865C80.2466 46.3137 79.9874 46.2273 79.6891 46.2273C79.3056 46.2273 79.0085 46.3433 78.7978 46.5753C78.5871 46.8049 78.4817 47.0961 78.4817 47.4489V51H77.6294V47.2642C77.6294 46.9541 77.5288 46.7043 77.3276 46.5149C77.1264 46.3232 76.8671 46.2273 76.5499 46.2273C76.3321 46.2273 76.1285 46.2853 75.9391 46.4013C75.7521 46.5173 75.6006 46.6783 75.4846 46.8842C75.3709 47.0878 75.3141 47.3234 75.3141 47.5909V51H74.476ZM84.7725 51.1278C84.4269 51.1278 84.1132 51.0627 83.8315 50.9325C83.5498 50.8 83.3261 50.6094 83.1603 50.3608C82.9946 50.1098 82.9118 49.8068 82.9118 49.4517C82.9118 49.1392 82.9733 48.8859 83.0964 48.6918C83.2195 48.4953 83.3841 48.3414 83.59 48.2301C83.796 48.1188 84.0233 48.036 84.2718 47.9815C84.5228 47.9247 84.7749 47.8797 85.0282 47.8466C85.3597 47.804 85.6284 47.772 85.8343 47.7507C86.0427 47.727 86.1942 47.688 86.2889 47.6335C86.3859 47.5791 86.4345 47.4844 86.4345 47.3494V47.321C86.4345 46.9706 86.3386 46.6984 86.1468 46.5043C85.9574 46.3101 85.6698 46.2131 85.2839 46.2131C84.8838 46.2131 84.5701 46.3007 84.3429 46.4759C84.1156 46.651 83.9558 46.8381 83.8635 47.0369L83.068 46.7528C83.21 46.4214 83.3994 46.1634 83.6362 45.9787C83.8753 45.7917 84.1357 45.6615 84.4174 45.5881C84.7015 45.5123 84.9809 45.4744 85.2555 45.4744C85.4307 45.4744 85.6319 45.4957 85.8592 45.5384C86.0888 45.5786 86.3102 45.6626 86.5233 45.7905C86.7387 45.9183 86.9174 46.1113 87.0595 46.3693C87.2015 46.6274 87.2725 46.973 87.2725 47.4062V51H86.4345V50.2614H86.3919C86.335 50.3797 86.2404 50.5064 86.1078 50.6413C85.9752 50.7763 85.7988 50.8911 85.5787 50.9858C85.3585 51.0805 85.0898 51.1278 84.7725 51.1278ZM84.9004 50.375C85.2318 50.375 85.5112 50.3099 85.7385 50.1797C85.9681 50.0495 86.1409 49.8814 86.2569 49.6754C86.3753 49.4695 86.4345 49.2528 86.4345 49.0256V48.2585C86.399 48.3011 86.3208 48.3402 86.2001 48.3757C86.0817 48.4089 85.9444 48.4384 85.7882 48.4645C85.6343 48.4882 85.484 48.5095 85.3372 48.5284C85.1928 48.545 85.0756 48.5592 84.9856 48.571C84.7678 48.5994 84.5642 48.6456 84.3748 48.7095C84.1878 48.7711 84.0363 48.8646 83.9203 48.9901C83.8066 49.1132 83.7498 49.2812 83.7498 49.4943C83.7498 49.7855 83.8575 50.0057 84.073 50.1548C84.2908 50.3016 84.5666 50.375 84.9004 50.375ZM91.1744 45.5455V46.2557H88.3477V45.5455H91.1744ZM89.1715 44.2386H90.0096V49.4375C90.0096 49.6742 90.0439 49.8518 90.1126 49.9702C90.1836 50.0862 90.2736 50.1643 90.3825 50.2045C90.4937 50.2424 90.6109 50.2614 90.734 50.2614C90.8263 50.2614 90.9021 50.2566 90.9613 50.2472C91.0205 50.2353 91.0678 50.2259 91.1033 50.2188L91.2738 50.9716C91.217 50.9929 91.1377 51.0142 91.0359 51.0355C90.9341 51.0592 90.805 51.071 90.6488 51.071C90.4121 51.071 90.18 51.0201 89.9528 50.9183C89.7279 50.8165 89.5408 50.6615 89.3917 50.4531C89.2449 50.2448 89.1715 49.982 89.1715 49.6648V44.2386ZM94.5923 51.1136C94.081 51.1136 93.6406 50.9929 93.2713 50.7514C92.902 50.5099 92.6179 50.1773 92.419 49.7536C92.2202 49.3298 92.1207 48.8456 92.1207 48.3011C92.1207 47.7472 92.2225 47.2583 92.4261 46.8345C92.6321 46.4084 92.9186 46.0758 93.2855 45.8366C93.6548 45.5952 94.0857 45.4744 94.5781 45.4744C94.9616 45.4744 95.3073 45.5455 95.6151 45.6875C95.9228 45.8295 96.175 46.0284 96.3714 46.2841C96.5679 46.5398 96.6899 46.8381 96.7372 47.179H95.8991C95.8352 46.9304 95.6932 46.7102 95.473 46.5185C95.2552 46.3243 94.9616 46.2273 94.5923 46.2273C94.2656 46.2273 93.9792 46.3125 93.733 46.483C93.4891 46.651 93.2985 46.889 93.1612 47.1967C93.0263 47.5021 92.9588 47.8608 92.9588 48.2727C92.9588 48.6941 93.0251 49.0611 93.1577 49.3736C93.2926 49.6861 93.482 49.9287 93.7259 50.1016C93.9721 50.2744 94.2609 50.3608 94.5923 50.3608C94.8101 50.3608 95.0078 50.3229 95.1854 50.2472C95.3629 50.1714 95.5133 50.0625 95.6364 49.9205C95.7595 49.7784 95.8471 49.608 95.8991 49.4091H96.7372C96.6899 49.7311 96.5727 50.0211 96.3857 50.2791C96.201 50.5348 95.956 50.7384 95.6506 50.8899C95.3475 51.0391 94.9948 51.1136 94.5923 51.1136ZM98.8004 47.7188V51H97.9624V43.7273H98.8004V46.3977H98.8714C98.9993 46.116 99.1911 45.8923 99.4467 45.7266C99.7048 45.5585 100.048 45.4744 100.477 45.4744C100.848 45.4744 101.174 45.549 101.453 45.6982C101.732 45.8449 101.949 46.071 102.103 46.3764C102.259 46.6795 102.337 47.0653 102.337 47.5341V51H101.499V47.5909C101.499 47.1577 101.387 46.8227 101.162 46.5859C100.939 46.3468 100.63 46.2273 100.235 46.2273C99.9605 46.2273 99.7143 46.2853 99.4964 46.4013C99.281 46.5173 99.1106 46.6866 98.9851 46.9091C98.862 47.1316 98.8004 47.4015 98.8004 47.7188Z" fill="black"/>
<path d="M49.7173 15.7273H51.3295L53.4886 20.9972H53.5739L55.733 15.7273H57.3452V23H56.081V18.0036H56.0135L54.0036 22.9787H53.0589L51.049 17.9929H50.9815V23H49.7173V15.7273ZM58.7798 23V15.7273H63.5099V16.8317H60.0973V18.8061H63.2649V19.9105H60.0973V21.8956H63.5384V23H58.7798ZM70.8306 15.7273V23H69.6587L66.2319 18.0462H66.1715V23H64.854V15.7273H66.033L69.4563 20.6847H69.5202V15.7273H70.8306ZM76.8507 15.7273H78.1681V20.4787C78.1681 20.9995 78.045 21.4576 77.7988 21.853C77.555 22.2483 77.2117 22.5573 76.769 22.7798C76.3263 23 75.809 23.1101 75.2172 23.1101C74.6229 23.1101 74.1045 23 73.6618 22.7798C73.219 22.5573 72.8758 22.2483 72.6319 21.853C72.3881 21.4576 72.2662 20.9995 72.2662 20.4787V15.7273H73.5836V20.3686C73.5836 20.6716 73.6499 20.9415 73.7825 21.1783C73.9174 21.415 74.1068 21.6009 74.3507 21.7358C74.5945 21.8684 74.8833 21.9347 75.2172 21.9347C75.551 21.9347 75.8398 21.8684 76.0836 21.7358C76.3298 21.6009 76.5192 21.415 76.6518 21.1783C76.7844 20.9415 76.8507 20.6716 76.8507 20.3686V15.7273Z" fill="black"/>
</svg>
